<svg width="14" height="14" viewBox="0 0 14 14" fill="none" xmlns="http://www.w3.org/2000/svg">
<path d="M12.3261 3.34782H10.8652L10.0587 2.13043C9.75435 1.67391 9.22174 1.39999 8.67391 1.39999H5.32609C4.77826 1.39999 4.24565 1.67391 3.9413 2.13043L3.13478 3.34782H1.67391C0.745652 3.34782 0 4.09347 0 5.02173V10.9261C0 11.8543 0.745652 12.6 1.67391 12.6H12.3261C13.2543 12.6 14 11.8543 14 10.9261V5.02173C14 4.09347 13.2543 3.34782 12.3261 3.34782ZM7 11.2304C4.91522 11.2304 3.22609 9.5413 3.22609 7.45652C3.22609 5.37173 4.91522 3.69782 7 3.69782C9.08478 3.69782 10.7739 5.38695 10.7739 7.47173C10.7739 9.5413 9.08478 11.2304 7 11.2304ZM12.113 5.70652C12.0978 5.70652 12.0826 5.70652 12.0522 5.70652H11.4435C11.1696 5.6913 10.9565 5.46304 10.9717 5.18912C10.987 4.93043 11.1848 4.7326 11.4435 4.71739H12.0522C12.3261 4.70217 12.5543 4.91521 12.5696 5.18912C12.5848 5.46304 12.387 5.6913 12.113 5.70652Z" fill="black"/>
<path d="M6.99844 5.37173C5.84192 5.37173 4.89844 6.31521 4.89844 7.47173C4.89844 8.62826 5.84192 9.55652 6.99844 9.55652C8.15496 9.55652 9.09844 8.61304 9.09844 7.45652C9.09844 6.3 8.15496 5.37173 6.99844 5.37173Z" fill="black"/>
</svg>
