<svg width="14" height="14" viewBox="0 0 14 14" fill="none" xmlns="http://www.w3.org/2000/svg">
<g clip-path="url(#clip0_510_1973)">
<path d="M10.3108 0.797787C10.1283 0.615273 10.1283 0.319368 10.3108 0.136854C10.4933 -0.0456179 10.7892 -0.0456179 10.9717 0.136854L12.7811 1.94615C12.9636 2.12866 12.9636 2.42457 12.7811 2.60708C12.6898 2.69829 12.5702 2.74396 12.4506 2.74396C12.331 2.74396 12.2114 2.69834 12.1202 2.60708L10.3108 0.797787ZM13.0078 13.0653H0.990768C0.732674 13.0653 0.523438 13.2746 0.523438 13.5327C0.523438 13.7908 0.732674 14 0.990768 14H13.0077C13.2658 14 13.475 13.7908 13.475 13.5327C13.475 13.2746 13.2659 13.0653 13.0078 13.0653ZM1.21751 11.7005C1.1 11.583 1.05373 11.412 1.09596 11.2513L1.74071 8.79709C1.76178 8.71696 1.80371 8.64393 1.86226 8.58539L9.0433 1.40421C9.22582 1.22174 9.52168 1.22174 9.7042 1.40421L11.5137 3.21359C11.6013 3.30124 11.6505 3.42007 11.6505 3.54404C11.6505 3.66796 11.6013 3.78683 11.5137 3.87448L4.33257 11.0556C4.27402 11.1141 4.20095 11.156 4.12091 11.1771L1.66674 11.822C1.62749 11.8323 1.58755 11.8373 1.548 11.8373C1.4256 11.8373 1.30626 11.7893 1.21751 11.7005ZM2.20332 10.7146L3.76106 10.3053L10.5223 3.54404L9.37379 2.39559L2.61258 9.15689L2.20332 10.7146Z" fill="#476495"/>
</g>
<defs>
<clipPath id="clip0_510_1973">
<rect width="14" height="14" fill="white"/>
</clipPath>
</defs>
</svg>
