<svg width="30" height="33" viewBox="0 0 30 33" fill="none" xmlns="http://www.w3.org/2000/svg">
<path d="M25.8398 8.23242V28.0371C25.8398 29.1035 24.9785 29.9648 23.9121 29.9648H6.08789C5.02148 29.9648 4.16016 29.1035 4.16016 28.0371V1.96289C4.16016 0.896484 5.02148 0.0351562 6.08789 0.0351562H17.6426L25.8398 8.23242Z" fill="#23A566"/>
<path d="M20.8105 10.7143H11.3301C10.9902 10.7143 10.7148 10.9897 10.7148 11.3296V19.5854C10.7148 19.9253 10.9902 20.2007 11.3301 20.2007H20.8164C21.1562 20.2007 21.4316 19.9253 21.4316 19.5854V11.3354C21.4258 10.9956 21.1504 10.7143 20.8105 10.7143ZM11.9453 14.6753H15.4551V16.2397H11.9453V14.6753ZM16.6855 14.6753H20.1953V16.2397H16.6855V14.6753ZM20.1953 13.4448H16.6855V11.9507H20.1953V13.4448ZM15.4551 11.9507V13.4448H11.9453V11.9507H15.4551ZM11.9453 17.476H15.4551V18.9702H11.9453V17.476ZM16.6855 18.9702V17.476H20.1953V18.9702H16.6855Z" fill="white"/>
<path opacity="0.19" d="M18.7422 7.93359L25.8379 13.6816V8.28516L21.8125 5.94727L18.7422 7.93359Z" fill="black"/>
<path d="M25.8379 8.23242H19.5684C18.502 8.23242 17.6406 7.37109 17.6406 6.30469V0.0351562L25.8379 8.23242Z" fill="#8ED1B1"/>
<g clip-path="url(#clip0_414_3653)">
<path d="M29.998 27C29.998 23.6862 27.3122 21 23.999 21C20.6859 21 18 23.6862 18 27C18 30.3138 20.6859 33 23.999 33C27.3122 33 29.998 30.3138 29.998 27Z" fill="#EBFFF9"/>
<path d="M27.6589 22.2453C28.4395 23.2581 28.904 24.5271 28.904 25.9047C28.904 29.2184 26.2181 31.9047 22.9049 31.9047C21.5275 31.9047 20.2588 31.4401 19.2461 30.6594C20.3431 32.0828 22.0644 33 24.0001 33C27.3133 33 29.9991 30.3138 29.9991 27C29.9991 25.064 29.082 23.3424 27.6589 22.2453Z" fill="#BCFFD3"/>
<path d="M25.3504 26.6638L24.864 27.1503V24.8099C24.864 24.3313 24.4761 23.9434 23.9977 23.9434C23.5192 23.9434 23.1314 24.3313 23.1314 24.8099V27.1717L22.6468 26.6871C22.3085 26.3488 21.76 26.3488 21.4218 26.6871C21.0834 27.0255 21.0834 27.5741 21.4218 27.9125L22.7618 29.2528L23.2674 29.7585C23.6648 30.1559 24.3091 30.1559 24.7065 29.7585L25.212 29.2528L26.5755 27.8891C26.9128 27.5519 26.9128 27.0048 26.5755 26.6676L26.5719 26.6638C26.2345 26.3265 25.6877 26.3265 25.3504 26.6638Z" fill="#1C8653"/>
<path d="M24.1705 24.8099V27.1033C24.1705 27.3571 24.4774 27.4843 24.657 27.3048C24.7203 27.2413 24.7912 27.1899 24.8667 27.1502V24.8099C24.8667 24.3313 24.4788 23.9434 24.0003 23.9434C23.8766 23.9434 23.7588 23.9696 23.6523 24.0164C23.9574 24.1505 24.1705 24.4552 24.1705 24.8099Z" fill="#5DC995"/>
<path d="M26.5773 26.6676L26.5736 26.6638C26.3143 26.4045 25.9314 26.3448 25.6148 26.4841C25.7101 26.526 25.7994 26.5858 25.8774 26.6638L25.8811 26.6676C26.2184 27.0048 26.2184 27.5519 25.8811 27.8891L24.5177 29.2528L24.0121 29.7585C23.9034 29.8671 23.7761 29.946 23.6406 29.9952C24.0006 30.126 24.4196 30.0472 24.7082 29.7585L25.2138 29.2528L26.5773 27.8891C26.9146 27.5518 26.9146 27.0048 26.5773 26.6676Z" fill="#5DC995"/>
</g>
<defs>
<clipPath id="clip0_414_3653">
<rect width="12" height="12" fill="white" transform="translate(18 21)"/>
</clipPath>
</defs>
</svg>
