<svg width="213" height="87" viewBox="0 0 213 87" fill="none" xmlns="http://www.w3.org/2000/svg">
<g clip-path="url(#clip0_1_71)">
<path d="M200.142 73.4521H205.836C207.225 73.4521 208.459 73.7258 209.537 74.2733C210.616 74.8084 211.454 75.5735 212.049 76.569C212.644 77.5519 212.942 78.6904 212.942 79.9844C212.942 81.2786 212.644 82.4232 212.049 83.4186C211.454 84.4016 210.616 85.1669 209.537 85.7144C208.459 86.2493 207.225 86.5169 205.836 86.5169H200.142V73.4521ZM205.723 84.4639C206.678 84.4639 207.515 84.2835 208.235 83.9226C208.967 83.5493 209.525 83.0267 209.91 82.3548C210.306 81.6704 210.505 80.8804 210.505 79.9844C210.505 79.0886 210.306 78.3047 209.91 77.6328C209.525 76.9484 208.967 76.4258 208.235 76.065C207.515 75.6918 206.678 75.5052 205.723 75.5052H202.56V84.4639H205.723Z" fill="white"/>
<path d="M197.017 84.4825V86.5169H187.251V73.4521H196.757V75.4864H189.669V78.8833H195.957V80.8804H189.669V84.4825H197.017Z" fill="white"/>
<path d="M181.345 79.8352H183.633V85.0423C182.964 85.5775 182.182 85.9881 181.289 86.2742C180.396 86.5604 179.478 86.7034 178.535 86.7034C177.208 86.7034 176.011 86.4172 174.945 85.8449C173.878 85.2601 173.041 84.4576 172.433 83.4373C171.826 82.4169 171.521 81.2661 171.521 79.9844C171.521 78.7028 171.826 77.5519 172.433 76.5316C173.041 75.5113 173.878 74.715 174.945 74.1426C176.025 73.5577 177.233 73.2654 178.573 73.2654C179.664 73.2654 180.656 73.4459 181.549 73.8067C182.442 74.1675 183.192 74.6964 183.801 75.3931L182.275 76.8862C181.283 75.8909 180.085 75.3931 178.684 75.3931C177.767 75.3931 176.948 75.5859 176.229 75.9716C175.521 76.3575 174.964 76.8987 174.554 77.5955C174.158 78.2922 173.959 79.0885 173.959 79.9844C173.959 80.8554 174.158 81.6393 174.554 82.336C174.964 83.033 175.521 83.5804 176.229 83.9785C176.948 84.3767 177.761 84.5758 178.666 84.5758C179.682 84.5758 180.575 84.3518 181.345 83.9039V79.8352Z" fill="white"/>
<path d="M166.717 83.4933H160.205L158.921 86.5169H156.429L162.289 73.4521H164.67L170.549 86.5169H168.019L166.717 83.4933ZM165.916 81.5897L163.461 75.8783L161.023 81.5897H165.916Z" fill="white"/>
<path d="M154.353 73.4521V86.5169H152.362L145.181 77.6701V86.5169H142.781V73.4521H144.772L151.953 82.2988V73.4521H154.353Z" fill="white"/>
<path d="M136.865 83.4933H130.353L129.069 86.5169H126.576L132.437 73.4521H134.818L140.697 86.5169H138.167L136.865 83.4933ZM136.065 81.5897L133.609 75.8783L131.172 81.5897H136.065Z" fill="white"/>
<path d="M122.184 86.5169L122.166 77.8567L117.887 85.0237H116.808L112.529 77.9688V86.5169H110.222V73.4521H112.213L117.384 82.1121L122.463 73.4521H124.454L124.473 86.5169H122.184Z" fill="white"/>
<path d="M96.561 86.7034C95.5562 86.7034 94.5827 86.5604 93.64 86.2742C92.7098 85.9881 91.9719 85.6085 91.4261 85.1358L92.2632 83.2506C92.7967 83.6737 93.4478 84.0222 94.2167 84.2958C94.9982 84.5571 95.7796 84.6878 96.561 84.6878C97.5283 84.6878 98.2476 84.5323 98.719 84.2212C99.2028 83.9101 99.4445 83.4995 99.4445 82.9893C99.4445 82.6161 99.3081 82.3112 99.0353 82.0749C98.7748 81.8259 98.4399 81.6332 98.0307 81.4963C97.6214 81.3593 97.0632 81.2038 96.3562 81.0297C95.3641 80.7932 94.5579 80.5568 93.9377 80.3204C93.3299 80.084 92.8029 79.7169 92.3563 79.2191C91.9223 78.709 91.7052 78.0246 91.7052 77.1661C91.7052 76.4445 91.8975 75.7912 92.282 75.2065C92.6787 74.6092 93.268 74.1364 94.0494 73.7881C94.8431 73.4396 95.8104 73.2654 96.9515 73.2654C97.7454 73.2654 98.5268 73.365 99.2957 73.564C100.065 73.763 100.728 74.0492 101.286 74.4225L100.524 76.3077C99.9531 75.9716 99.3578 75.7166 98.7375 75.5424C98.1174 75.3683 97.516 75.2811 96.933 75.2811C95.978 75.2811 95.2649 75.4429 94.7935 75.7663C94.3345 76.0899 94.1051 76.5191 94.1051 77.0542C94.1051 77.4274 94.2353 77.7324 94.4958 77.9688C94.7687 78.2051 95.1098 78.3917 95.5191 78.5286C95.9284 78.6655 96.4864 78.8211 97.1934 78.9952C98.1609 79.2191 98.9546 79.4556 99.5748 79.7045C100.195 79.9409 100.722 80.308 101.156 80.8056C101.603 81.3033 101.826 81.9752 101.826 82.8214C101.826 83.543 101.627 84.1963 101.231 84.781C100.846 85.3659 100.257 85.8325 99.4631 86.1808C98.6694 86.5293 97.7019 86.7034 96.561 86.7034Z" fill="white"/>
<path d="M84.6794 86.7034C83.3647 86.7034 82.174 86.4172 81.1074 85.8449C80.0532 85.2601 79.2222 84.4576 78.6143 83.4373C78.019 82.4169 77.7214 81.2661 77.7214 79.9844C77.7214 78.7028 78.0253 77.5519 78.6329 76.5316C79.2407 75.5113 80.0717 74.715 81.1259 74.1426C82.1926 73.5577 83.3833 73.2654 84.6979 73.2654C85.7646 73.2654 86.7382 73.452 87.6188 73.8253C88.4994 74.1986 89.2437 74.7399 89.8513 75.4491L88.2887 76.9236C87.346 75.9032 86.1863 75.3931 84.8096 75.3931C83.9165 75.3931 83.1166 75.5922 82.4097 75.9904C81.7027 76.3761 81.1507 76.9173 80.7539 77.6141C80.357 78.3108 80.1586 79.101 80.1586 79.9844C80.1586 80.8679 80.357 81.658 80.7539 82.3548C81.1507 83.0516 81.7027 83.5991 82.4097 83.9973C83.1166 84.383 83.9165 84.5758 84.8096 84.5758C86.1863 84.5758 87.346 84.0594 88.2887 83.0267L89.8513 84.5197C89.2437 85.229 88.4933 85.7702 87.6002 86.1436C86.7196 86.5169 85.746 86.7034 84.6794 86.7034Z" fill="white"/>
<path d="M72.2828 73.4521H74.7012V86.5169H72.2828V73.4521Z" fill="white"/>
<path d="M63.305 75.5052H58.9888V73.4521H70.0397V75.5052H65.7236V86.5169H63.305V75.5052Z" fill="white"/>
<path d="M52.7537 86.7034C51.7491 86.7034 50.7754 86.5604 49.8329 86.2742C48.9027 85.9881 48.1646 85.6085 47.6189 85.1358L48.4561 83.2506C48.9894 83.6737 49.6406 84.0222 50.4097 84.2958C51.1909 84.5571 51.9723 84.6878 52.7537 84.6878C53.7212 84.6878 54.4405 84.5323 54.9119 84.2212C55.3955 83.9101 55.6374 83.4995 55.6374 82.9893C55.6374 82.6161 55.501 82.3112 55.228 82.0749C54.9675 81.8259 54.6327 81.6332 54.2234 81.4963C53.8142 81.3593 53.2561 81.2038 52.5491 81.0297C51.5568 80.7932 50.7506 80.5568 50.1305 80.3204C49.5228 80.084 48.9956 79.7169 48.5491 79.2191C48.115 78.709 47.8981 78.0246 47.8981 77.1661C47.8981 76.4445 48.0902 75.7912 48.4747 75.2065C48.8716 74.6092 49.4607 74.1364 50.2421 73.7881C51.0359 73.4396 52.0033 73.2654 53.1444 73.2654C53.9381 73.2654 54.7196 73.365 55.4885 73.564C56.2576 73.763 56.9211 74.0492 57.4791 74.4225L56.7164 76.3077C56.1459 75.9716 55.5506 75.7166 54.9304 75.5424C54.3103 75.3683 53.7087 75.2811 53.1259 75.2811C52.1709 75.2811 51.4576 75.4429 50.9863 75.7663C50.5274 76.0899 50.298 76.5191 50.298 77.0542C50.298 77.4274 50.4282 77.7324 50.6887 77.9688C50.9615 78.2051 51.3026 78.3917 51.7118 78.5286C52.1211 78.6655 52.6793 78.8211 53.3863 78.9952C54.3537 79.2191 55.1475 79.4556 55.7677 79.7045C56.3878 79.9409 56.9148 80.308 57.349 80.8056C57.7954 81.3033 58.0188 81.9752 58.0188 82.8214C58.0188 83.543 57.8202 84.1963 57.4234 84.781C57.0388 85.3659 56.4497 85.8325 55.656 86.1808C54.8623 86.5293 53.8948 86.7034 52.7537 86.7034Z" fill="white"/>
<path d="M42.3474 73.4521H44.7659V86.5169H42.3474V73.4521Z" fill="white"/>
<path d="M36.4414 79.8352H38.7296V85.0423C38.0599 85.5775 37.2785 85.9881 36.3856 86.2742C35.4925 86.5604 34.5748 86.7034 33.6321 86.7034C32.3049 86.7034 31.1082 86.4172 30.0415 85.8449C28.9748 85.2601 28.1376 84.4576 27.5299 83.4373C26.9221 82.4169 26.6183 81.2661 26.6183 79.9844C26.6183 78.7028 26.9221 77.5519 27.5299 76.5316C28.1376 75.5113 28.9748 74.715 30.0415 74.1426C31.1205 73.5577 32.3297 73.2654 33.6694 73.2654C34.7608 73.2654 35.753 73.4459 36.646 73.8067C37.539 74.1675 38.2893 74.6964 38.8971 75.3931L37.3716 76.8862C36.3793 75.8909 35.1824 75.3931 33.7809 75.3931C32.8632 75.3931 32.0445 75.5859 31.3251 75.9716C30.6183 76.3575 30.0601 76.8987 29.6508 77.5955C29.2539 78.2922 29.0555 79.0885 29.0555 79.9844C29.0555 80.8554 29.2539 81.6393 29.6508 82.336C30.0601 83.033 30.6183 83.5804 31.3251 83.9785C32.0445 84.3767 32.8569 84.5758 33.7623 84.5758C34.7794 84.5758 35.6723 84.3518 36.4414 83.9039V79.8352Z" fill="white"/>
<path d="M17.5434 86.7034C16.2163 86.7034 15.0195 86.4172 13.9528 85.8449C12.8862 85.2601 12.049 84.4576 11.4413 83.4373C10.8335 82.4046 10.5297 81.2536 10.5297 79.9844C10.5297 78.7153 10.8335 77.5706 11.4413 76.5502C12.049 75.5175 12.8862 74.715 13.9528 74.1426C15.0195 73.5577 16.2163 73.2654 17.5434 73.2654C18.8706 73.2654 20.0675 73.5577 21.134 74.1426C22.2007 74.715 23.0379 75.5113 23.6456 76.5316C24.2534 77.5519 24.5572 78.7028 24.5572 79.9844C24.5572 81.2661 24.2534 82.4169 23.6456 83.4373C23.0379 84.4576 22.2007 85.2601 21.134 85.8449C20.0675 86.4172 18.8706 86.7034 17.5434 86.7034ZM17.5434 84.5758C18.4117 84.5758 19.193 84.383 19.8877 83.9973C20.5822 83.5991 21.1279 83.0516 21.5247 82.3548C21.9217 81.6455 22.12 80.8554 22.12 79.9844C22.12 79.1135 21.9217 78.3296 21.5247 77.6328C21.1279 76.9236 20.5822 76.3761 19.8877 75.9904C19.193 75.5922 18.4117 75.3931 17.5434 75.3931C16.6753 75.3931 15.8939 75.5922 15.1993 75.9904C14.5048 76.3761 13.959 76.9236 13.5622 77.6328C13.1653 78.3296 12.9668 79.1135 12.9668 79.9844C12.9668 80.8554 13.1653 81.6455 13.5622 82.3548C13.959 83.0516 14.5048 83.5991 15.1993 83.9973C15.8939 84.383 16.6753 84.5758 17.5434 84.5758Z" fill="white"/>
<path d="M0.131493 73.4521H2.55005V84.4639H9.35921V86.5169H0.131493V73.4521Z" fill="white"/>
<path d="M154.503 56.7628V1.47395H165.761L185.917 48.7853L181.744 49.2592L201.821 1.47395H213V56.7628H203.552V9.37235L206.78 11.3469L187.492 56.7628H180.09L160.722 11.3469L163.951 9.37235V56.7628H154.503Z" fill="white"/>
<path d="M115.896 56.7628V48.3114H126.052C128.677 48.3114 130.514 47.5479 131.564 46.0209C132.613 44.4939 133.138 42.5193 133.138 40.0971V1.47395H142.586V40.0971C142.586 45.4154 141.116 49.5225 138.177 52.4186C135.238 55.3147 131.196 56.7628 126.052 56.7628H115.896Z" fill="white"/>
<path d="M73.9728 56.7628V1.47395H83.4205V49.3383H108.063V56.7628H73.9728Z" fill="white"/>
<path d="M18.0791 12.7079L7.1993 1.50576H44.1338C44.1338 1.50576 49.86 0.931293 53.0095 4.66533C56.159 8.39935 55.5863 12.7079 55.5863 12.7079V50.3354L44.1338 38.8461V12.7079H18.0791Z" fill="url(#paint0_linear_1_71)"/>
<mask id="mask0_1_71" style="mask-type:alpha" maskUnits="userSpaceOnUse" x="7" y="1" width="49" height="50">
<path d="M18.0785 12.7079L7.19856 1.50576H44.133C44.133 1.50576 49.8592 0.931293 53.0087 4.66533C56.1582 8.39935 55.5855 12.7079 55.5855 12.7079V50.3354L44.133 38.8461V12.7079H18.0785Z" fill="url(#paint1_linear_1_71)"/>
</mask>
<g mask="url(#mask0_1_71)">
<path d="M32.3947 25.027C38.8779 25.027 44.1336 19.4972 44.1336 12.676C44.1336 5.85468 38.8779 0.324936 32.3947 0.324936C25.9115 0.324936 20.6559 5.85468 20.6559 12.676C20.6559 19.4972 25.9115 25.027 32.3947 25.027Z" fill="url(#paint2_linear_1_71)"/>
</g>
<path d="M37.5473 46.1343L48.4272 57.3364H11.4928C11.4928 57.3364 5.76649 57.9109 2.61704 54.1769C-0.532403 50.4428 0.0402244 46.1343 0.0402244 46.1343V8.50676L11.4928 19.9961V46.1343H37.5473Z" fill="url(#paint3_linear_1_71)"/>
<mask id="mask1_1_71" style="mask-type:alpha" maskUnits="userSpaceOnUse" x="0" y="8" width="49" height="50">
<path d="M37.5481 46.1343L48.428 57.3364H11.4935C11.4935 57.3364 5.76723 57.9109 2.61778 54.1769C-0.531663 50.4428 0.0409644 46.1343 0.0409644 46.1343V8.50676L11.4935 19.9961V46.1343H37.5481Z" fill="url(#paint4_linear_1_71)"/>
</mask>
<g mask="url(#mask1_1_71)">
<path d="M23.2318 33.8152C16.7486 33.8152 11.4929 39.3449 11.4929 46.1662C11.4929 52.9875 16.7486 58.5172 23.2318 58.5172C29.715 58.5172 34.9706 52.9875 34.9706 46.1662C34.9706 39.3449 29.715 33.8152 23.2318 33.8152Z" fill="url(#paint5_linear_1_71)"/>
</g>
<path d="M37.5481 19.2824H18.0788V38.8142H37.5481V19.2824Z" fill="#0079F2"/>
</g>
<defs>
<linearGradient id="paint0_linear_1_71" x1="55.6269" y1="25.9046" x2="11.2077" y2="25.9046" gradientUnits="userSpaceOnUse">
<stop stop-color="#0079F2"/>
<stop offset="1" stop-color="#2AAAE6"/>
</linearGradient>
<linearGradient id="paint1_linear_1_71" x1="55.6263" y1="25.9046" x2="11.207" y2="25.9046" gradientUnits="userSpaceOnUse">
<stop stop-color="#0047DB"/>
<stop offset="1" stop-color="#0079F2"/>
</linearGradient>
<linearGradient id="paint2_linear_1_71" x1="42.7021" y1="6.9313" x2="35.54" y2="9.21582" gradientUnits="userSpaceOnUse">
<stop stop-opacity="0.25"/>
<stop offset="1" stop-opacity="0"/>
</linearGradient>
<linearGradient id="paint3_linear_1_71" x1="-0.000497965" y1="32.9374" x2="44.4189" y2="32.9374" gradientUnits="userSpaceOnUse">
<stop stop-color="#0079F2"/>
<stop offset="1" stop-color="#2AAAE6"/>
</linearGradient>
<linearGradient id="paint4_linear_1_71" x1="0.000242205" y1="32.9374" x2="44.4195" y2="32.9374" gradientUnits="userSpaceOnUse">
<stop stop-color="#0047DB"/>
<stop offset="1" stop-color="#0079F2"/>
</linearGradient>
<linearGradient id="paint5_linear_1_71" x1="12.9245" y1="51.9108" x2="20.0867" y2="49.6262" gradientUnits="userSpaceOnUse">
<stop stop-opacity="0.25"/>
<stop offset="1" stop-opacity="0"/>
</linearGradient>
<clipPath id="clip0_1_71">
<rect width="213" height="87" fill="white"/>
</clipPath>
</defs>
</svg>
