<svg width="195" height="80" viewBox="0 0 195 80" fill="none" xmlns="http://www.w3.org/2000/svg">
<g clip-path="url(#clip0_1_36)">
<path d="M183.229 67.5422H188.441C189.713 67.5422 190.842 67.7938 191.83 68.2973C192.817 68.7893 193.585 69.4929 194.129 70.4083C194.674 71.3121 194.947 72.359 194.947 73.5489C194.947 74.7389 194.674 75.7914 194.129 76.7068C193.585 77.6107 192.817 78.3144 191.83 78.8178C190.842 79.3097 189.713 79.5558 188.441 79.5558H183.229V67.5422ZM188.338 77.6679C189.213 77.6679 189.979 77.502 190.638 77.1702C191.308 76.8269 191.819 76.3464 192.171 75.7286C192.533 75.0992 192.716 74.3728 192.716 73.5489C192.716 72.7252 192.533 72.0043 192.171 71.3865C191.819 70.7572 191.308 70.2766 190.638 69.9448C189.979 69.6017 189.213 69.43 188.338 69.43H185.442V77.6679H188.338Z" fill="#4A5B7F"/>
<path d="M180.368 77.685V79.5558H171.427V67.5422H180.13V69.4128H173.641V72.5364H179.397V74.3728H173.641V77.685H180.368Z" fill="#4A5B7F"/>
<path d="M166.02 73.4116H168.115V78.1999C167.502 78.6919 166.786 79.0695 165.969 79.3326C165.151 79.5958 164.311 79.7273 163.448 79.7273C162.233 79.7273 161.137 79.4641 160.16 78.9378C159.184 78.4001 158.418 77.6622 157.861 76.7239C157.305 75.7857 157.027 74.7274 157.027 73.5489C157.027 72.3704 157.305 71.3121 157.861 70.3739C158.418 69.4356 159.184 68.7034 160.16 68.1771C161.149 67.6393 162.255 67.3705 163.482 67.3705C164.481 67.3705 165.389 67.5364 166.207 67.8682C167.024 68.2 167.711 68.6863 168.268 69.327L166.871 70.6999C165.963 69.7847 164.867 69.327 163.584 69.327C162.744 69.327 161.995 69.5043 161.336 69.8589C160.688 70.2138 160.179 70.7114 159.803 71.3521C159.44 71.9928 159.258 72.725 159.258 73.5489C159.258 74.3497 159.44 75.0706 159.803 75.7113C160.179 76.3521 160.688 76.8556 161.336 77.2216C161.995 77.5878 162.739 77.7708 163.567 77.7708C164.498 77.7708 165.315 77.5649 166.02 77.153V73.4116Z" fill="#4A5B7F"/>
<path d="M152.628 76.7754H146.666L145.491 79.5558H143.209L148.575 67.5422H150.755L156.137 79.5558H153.82L152.628 76.7754ZM151.895 75.025L149.647 69.7732L147.416 75.025H151.895Z" fill="#4A5B7F"/>
<path d="M141.31 67.5422V79.5558H139.486L132.912 71.4208V79.5558H130.715V67.5422H132.537L139.112 75.677V67.5422H141.31Z" fill="#4A5B7F"/>
<path d="M125.299 76.7754H119.337L118.162 79.5558H115.88L121.245 67.5422H123.425L128.807 79.5558H126.491L125.299 76.7754ZM124.566 75.025L122.318 69.7732L120.087 75.025H124.566Z" fill="#4A5B7F"/>
<path d="M111.859 79.5558L111.842 71.5924L107.925 78.1827H106.937L103.019 71.6954V79.5558H100.907V67.5422H102.73L107.465 75.5054L112.114 67.5422H113.937L113.954 79.5558H111.859Z" fill="#4A5B7F"/>
<path d="M88.4009 79.7273C87.481 79.7273 86.5898 79.5958 85.7267 79.3326C84.8751 79.0695 84.1996 78.7204 83.7 78.2858L84.4663 76.5523C84.9547 76.9413 85.5508 77.2617 86.2548 77.5134C86.9701 77.7537 87.6855 77.8738 88.4009 77.8738C89.2865 77.8738 89.945 77.7308 90.3765 77.4448C90.8194 77.1587 91.0408 76.7812 91.0408 76.312C91.0408 75.9688 90.9158 75.6884 90.6661 75.4712C90.4276 75.2422 90.1211 75.065 89.7464 74.9391C89.3717 74.8132 88.8607 74.6702 88.2134 74.51C87.3051 74.2926 86.567 74.0752 85.9993 73.8578C85.4429 73.6404 84.9604 73.3029 84.5516 72.8452C84.1542 72.3761 83.9554 71.7468 83.9554 70.9573C83.9554 70.2937 84.1315 69.6931 84.4835 69.1554C84.8467 68.6062 85.3862 68.1714 86.1016 67.8511C86.8282 67.5307 87.7138 67.3705 88.7584 67.3705C89.4852 67.3705 90.2006 67.462 90.9045 67.6451C91.6085 67.8281 92.2161 68.0912 92.727 68.4345L92.0286 70.168C91.5064 69.8589 90.9614 69.6244 90.3935 69.4643C89.8258 69.3041 89.2752 69.224 88.7414 69.224C87.8671 69.224 87.2143 69.3728 86.7828 69.6702C86.3626 69.9677 86.1525 70.3624 86.1525 70.8545C86.1525 71.1976 86.2718 71.478 86.5102 71.6954C86.7601 71.9127 87.0724 72.0843 87.4471 72.2102C87.8217 72.3361 88.3326 72.4792 88.9799 72.6393C89.8656 72.8452 90.5923 73.0626 91.16 73.2915C91.7277 73.5089 92.2103 73.8465 92.6077 74.304C93.0165 74.7617 93.2209 75.3795 93.2209 76.1576C93.2209 76.8212 93.0392 77.4219 92.6758 77.9596C92.3239 78.4974 91.7846 78.9265 91.0578 79.2467C90.3311 79.5672 89.4454 79.7273 88.4009 79.7273Z" fill="#4A5B7F"/>
<path d="M77.5234 79.7273C76.3198 79.7273 75.2298 79.4641 74.2532 78.9378C73.2881 78.4001 72.5273 77.6622 71.9709 76.7239C71.4259 75.7857 71.1534 74.7274 71.1534 73.5489C71.1534 72.3704 71.4316 71.3121 71.9879 70.3739C72.5443 69.4356 73.3051 68.7034 74.2702 68.1771C75.2467 67.6393 76.3368 67.3705 77.5404 67.3705C78.5169 67.3705 79.4082 67.542 80.2144 67.8853C81.0206 68.2286 81.7019 68.7263 82.2582 69.3785L80.8276 70.7343C79.9646 69.7961 78.903 69.327 77.6426 69.327C76.825 69.327 76.0926 69.51 75.4455 69.8762C74.7982 70.2309 74.2929 70.7286 73.9297 71.3693C73.5663 72.01 73.3846 72.7366 73.3846 73.5489C73.3846 74.3613 73.5663 75.0879 73.9297 75.7286C74.2929 76.3693 74.7982 76.8727 75.4455 77.2389C76.0926 77.5935 76.825 77.7708 77.6426 77.7708C78.903 77.7708 79.9646 77.296 80.8276 76.3464L82.2582 77.7193C81.7019 78.3715 81.015 78.8692 80.1974 79.2125C79.3912 79.5558 78.4999 79.7273 77.5234 79.7273Z" fill="#4A5B7F"/>
<path d="M66.1744 67.5422H68.3884V79.5558H66.1744V67.5422Z" fill="#4A5B7F"/>
<path d="M57.9553 69.43H54.0039V67.5422H64.1209V69.43H60.1695V79.5558H57.9553V69.43Z" fill="#4A5B7F"/>
<path d="M48.2957 79.7273C47.376 79.7273 46.4845 79.5958 45.6216 79.3326C44.7701 79.0695 44.0944 78.7204 43.5948 78.2858L44.3613 76.5523C44.8494 76.9413 45.4456 77.2617 46.1497 77.5134C46.8649 77.7537 47.5803 77.8738 48.2957 77.8738C49.1814 77.8738 49.8399 77.7308 50.2714 77.4448C50.7142 77.1587 50.9357 76.7812 50.9357 76.312C50.9357 75.9688 50.8107 75.6884 50.5609 75.4712C50.3224 75.2422 50.0158 75.065 49.6412 74.9391C49.2665 74.8132 48.7556 74.6702 48.1083 74.51C47.1999 74.2926 46.4618 74.0752 45.8941 73.8578C45.3378 73.6404 44.8552 73.3029 44.4464 72.8452C44.049 72.3761 43.8504 71.7468 43.8504 70.9573C43.8504 70.2937 44.0263 69.6931 44.3782 69.1554C44.7416 68.6062 45.281 68.1714 45.9963 67.8511C46.723 67.5307 47.6087 67.3705 48.6533 67.3705C49.38 67.3705 50.0954 67.462 50.7993 67.6451C51.5034 67.8281 52.1108 68.0912 52.6217 68.4345L51.9235 70.168C51.4012 69.8589 50.8561 69.6244 50.2884 69.4643C49.7207 69.3041 49.17 69.224 48.6363 69.224C47.7621 69.224 47.1091 69.3728 46.6776 69.6702C46.2575 69.9677 46.0474 70.3624 46.0474 70.8545C46.0474 71.1976 46.1667 71.478 46.4051 71.6954C46.6549 71.9127 46.9671 72.0843 47.3418 72.2102C47.7165 72.3361 48.2275 72.4792 48.8748 72.6393C49.7604 72.8452 50.4872 73.0626 51.0549 73.2915C51.6226 73.5089 52.1051 73.8465 52.5026 74.304C52.9113 74.7617 53.1158 75.3795 53.1158 76.1576C53.1158 76.8212 52.934 77.4219 52.5708 77.9596C52.2186 78.4974 51.6793 78.9265 50.9527 79.2467C50.226 79.5672 49.3403 79.7273 48.2957 79.7273Z" fill="#4A5B7F"/>
<path d="M38.7688 67.5422H40.9829V79.5558H38.7688V67.5422Z" fill="#4A5B7F"/>
<path d="M33.3619 73.4116H35.4567V78.1999C34.8436 78.6919 34.1282 79.0695 33.3107 79.3326C32.4931 79.5958 31.653 79.7273 30.7899 79.7273C29.575 79.7273 28.4793 79.4641 27.5028 78.9378C26.5263 78.4001 25.7598 77.6622 25.2035 76.7239C24.647 75.7857 24.3689 74.7274 24.3689 73.5489C24.3689 72.3704 24.647 71.3121 25.2035 70.3739C25.7598 69.4356 26.5263 68.7034 27.5028 68.1771C28.4906 67.6393 29.5977 67.3705 30.8241 67.3705C31.8233 67.3705 32.7316 67.5364 33.5492 67.8682C34.3667 68.2 35.0536 68.6863 35.6101 69.327L34.2134 70.6999C33.305 69.7847 32.2093 69.327 30.9262 69.327C30.086 69.327 29.3365 69.5043 28.678 69.8589C28.0308 70.2138 27.5198 70.7114 27.1451 71.3521C26.7817 71.9928 26.6001 72.725 26.6001 73.5489C26.6001 74.3497 26.7817 75.0706 27.1451 75.7113C27.5198 76.3521 28.0308 76.8556 28.678 77.2216C29.3365 77.5878 30.0803 77.7708 30.9092 77.7708C31.8403 77.7708 32.6578 77.5649 33.3619 77.153V73.4116Z" fill="#4A5B7F"/>
<path d="M16.0609 79.7273C14.8459 79.7273 13.7502 79.4641 12.7737 78.9378C11.7972 78.4001 11.0308 77.6622 10.4744 76.7239C9.91801 75.7743 9.63983 74.7159 9.63983 73.5489C9.63983 72.3819 9.91801 71.3293 10.4744 70.391C11.0308 69.4414 11.7972 68.7034 12.7737 68.1771C13.7502 67.6393 14.8459 67.3705 16.0609 67.3705C17.2759 67.3705 18.3716 67.6393 19.348 68.1771C20.3246 68.7034 21.0911 69.4356 21.6474 70.3739C22.2038 71.3121 22.482 72.3704 22.482 73.5489C22.482 74.7274 22.2038 75.7857 21.6474 76.7239C21.0911 77.6622 20.3246 78.4001 19.348 78.9378C18.3716 79.4641 17.2759 79.7273 16.0609 79.7273ZM16.0609 77.7708C16.8558 77.7708 17.571 77.5935 18.207 77.2389C18.8429 76.8727 19.3425 76.3693 19.7057 75.7286C20.0691 75.0763 20.2507 74.3497 20.2507 73.5489C20.2507 72.7481 20.0691 72.0272 19.7057 71.3865C19.3425 70.7343 18.8429 70.2309 18.207 69.8762C17.571 69.51 16.8558 69.327 16.0609 69.327C15.2661 69.327 14.5508 69.51 13.9149 69.8762C13.279 70.2309 12.7794 70.7343 12.4161 71.3865C12.0527 72.0272 11.871 72.7481 11.871 73.5489C11.871 74.3497 12.0527 75.0763 12.4161 75.7286C12.7794 76.3693 13.279 76.8727 13.9149 77.2389C14.5508 77.5935 15.2661 77.7708 16.0609 77.7708Z" fill="#4A5B7F"/>
<path d="M0.120379 67.5422H2.33455V77.6679H8.56829V79.5558H0.120379V67.5422Z" fill="#4A5B7F"/>
<path d="M141.446 52.1956V1.35537H151.753L170.206 44.8601L166.385 45.2959L184.765 1.35537H195V52.1956H186.35V8.61826L189.306 10.434L171.647 52.1956H164.871L147.14 10.434L150.096 8.61826V52.1956H141.446Z" fill="#1A1E51"/>
<path d="M106.102 52.1956V44.4243H115.4C117.803 44.4243 119.484 43.7222 120.446 42.318C121.406 40.914 121.887 39.0982 121.887 36.8709V1.35537H130.536V36.8709C130.536 41.7613 129.191 45.538 126.5 48.201C123.809 50.8641 120.109 52.1956 115.4 52.1956H106.102Z" fill="#1A1E51"/>
<path d="M67.7215 52.1956V1.35537H76.3709V45.3686H98.9312V52.1956H67.7215Z" fill="#1A1E51"/>
<path d="M16.5513 11.6854L6.5909 1.38461H40.4041C40.4041 1.38461 45.6464 0.856368 48.5298 4.28997C51.4131 7.72355 50.8889 11.6854 50.8889 11.6854V46.2855L40.4041 35.7206V11.6854H16.5513Z" fill="url(#paint0_linear_1_36)"/>
<mask id="mask0_1_36" style="mask-type:alpha" maskUnits="userSpaceOnUse" x="6" y="1" width="45" height="46">
<path d="M16.5508 11.6854L6.59023 1.38461H40.4034C40.4034 1.38461 45.6457 0.856368 48.5291 4.28997C51.4124 7.72355 50.8882 11.6854 50.8882 11.6854V46.2855L40.4034 35.7206V11.6854H16.5508Z" fill="url(#paint1_linear_1_36)"/>
</mask>
<g mask="url(#mask0_1_36)">
<path d="M29.6571 23.0133C35.5924 23.0133 40.404 17.9285 40.404 11.6561C40.404 5.38361 35.5924 0.298793 29.6571 0.298793C23.7218 0.298793 18.9103 5.38361 18.9103 11.6561C18.9103 17.9285 23.7218 23.0133 29.6571 23.0133Z" fill="url(#paint2_linear_1_36)"/>
</g>
<path d="M34.3743 42.4223L44.3348 52.7231H10.5215C10.5215 52.7231 5.27918 53.2514 2.39588 49.8178C-0.487412 46.3841 0.0368241 42.4223 0.0368241 42.4223V7.8223L10.5215 18.3872V42.4223H34.3743Z" fill="url(#paint3_linear_1_36)"/>
<mask id="mask1_1_36" style="mask-type:alpha" maskUnits="userSpaceOnUse" x="0" y="7" width="45" height="46">
<path d="M34.375 42.4223L44.3355 52.7231H10.5222C10.5222 52.7231 5.27986 53.2514 2.39656 49.8178C-0.486733 46.3841 0.0375041 42.4223 0.0375041 42.4223V7.8223L10.5222 18.3872V42.4223H34.375Z" fill="url(#paint4_linear_1_36)"/>
</mask>
<g mask="url(#mask1_1_36)">
<path d="M21.2685 31.0944C15.3332 31.0944 10.5217 36.1792 10.5217 42.4517C10.5217 48.7241 15.3332 53.8089 21.2685 53.8089C27.2038 53.8089 32.0154 48.7241 32.0154 42.4517C32.0154 36.1792 27.2038 31.0944 21.2685 31.0944Z" fill="url(#paint5_linear_1_36)"/>
</g>
<path d="M34.375 17.7309H16.551V35.6912H34.375V17.7309Z" fill="#0079F2"/>
</g>
<defs>
<linearGradient id="paint0_linear_1_36" x1="50.9261" y1="23.8204" x2="10.2606" y2="23.8204" gradientUnits="userSpaceOnUse">
<stop stop-color="#0079F2"/>
<stop offset="1" stop-color="#2AAAE6"/>
</linearGradient>
<linearGradient id="paint1_linear_1_36" x1="50.9255" y1="23.8204" x2="10.2599" y2="23.8204" gradientUnits="userSpaceOnUse">
<stop stop-color="#0047DB"/>
<stop offset="1" stop-color="#0079F2"/>
</linearGradient>
<linearGradient id="paint2_linear_1_36" x1="39.0935" y1="6.37361" x2="32.5313" y2="8.45756" gradientUnits="userSpaceOnUse">
<stop stop-opacity="0.25"/>
<stop offset="1" stop-opacity="0"/>
</linearGradient>
<linearGradient id="paint3_linear_1_36" x1="-0.000456939" y1="30.2873" x2="40.6652" y2="30.2873" gradientUnits="userSpaceOnUse">
<stop stop-color="#0079F2"/>
<stop offset="1" stop-color="#2AAAE6"/>
</linearGradient>
<linearGradient id="paint4_linear_1_36" x1="0.000223151" y1="30.2873" x2="40.6657" y2="30.2873" gradientUnits="userSpaceOnUse">
<stop stop-color="#0047DB"/>
<stop offset="1" stop-color="#0079F2"/>
</linearGradient>
<linearGradient id="paint5_linear_1_36" x1="11.8323" y1="47.734" x2="18.3945" y2="45.6501" gradientUnits="userSpaceOnUse">
<stop stop-opacity="0.25"/>
<stop offset="1" stop-opacity="0"/>
</linearGradient>
<clipPath id="clip0_1_36">
<rect width="195" height="80" fill="white"/>
</clipPath>
</defs>
</svg>
