<svg width="18" height="18" viewBox="0 0 18 18" fill="none" xmlns="http://www.w3.org/2000/svg">
<path d="M9 18C13.9706 18 18 13.9706 18 9C18 4.02944 13.9706 0 9 0C4.02944 0 0 4.02944 0 9C0 13.9706 4.02944 18 9 18Z" fill="url(#paint0_linear_145_2080)"/>
<path d="M9.0009 1.63193C4.93825 1.63193 1.63281 4.93737 1.63281 9.00002C1.63281 13.0627 4.93825 16.3681 9.0009 16.3681C13.0635 16.3681 16.369 13.0627 16.369 9.00002C16.369 4.93737 13.0635 1.63193 9.0009 1.63193Z" fill="#F7696B"/>
<path d="M8.9983 16.1233C5.07029 16.1233 1.875 12.928 1.875 9.00001C1.875 5.07199 5.07029 1.87671 8.9983 1.87671C12.9263 1.87671 16.1216 5.07199 16.1216 9.00001C16.1216 12.928 12.9263 16.1233 8.9983 16.1233Z" fill="white"/>
<path d="M10.1518 8.99999L12.2497 6.90216C12.5679 6.58313 12.5679 6.06663 12.2497 5.7484C11.9306 5.43018 11.4141 5.43018 11.0959 5.7484L8.99807 7.84623L6.90024 5.7484C6.5812 5.43018 6.0647 5.43018 5.74648 5.7484C5.42826 6.06744 5.42826 6.58394 5.74648 6.90216L7.8443 8.99999L5.74648 11.0978C5.42826 11.4169 5.42826 11.9334 5.74648 12.2516C5.90559 12.4107 6.11448 12.4907 6.32336 12.4907C6.53225 12.4907 6.74113 12.4107 6.90024 12.2516L8.99807 10.1538L11.0959 12.2516C11.255 12.4107 11.4639 12.4907 11.6728 12.4907C11.8817 12.4907 12.0905 12.4107 12.2497 12.2516C12.5679 11.9325 12.5679 11.416 12.2497 11.0978L10.1518 8.99999Z" fill="url(#paint1_linear_145_2080)"/>
<defs>
<linearGradient id="paint0_linear_145_2080" x1="9" y1="18" x2="9" y2="0" gradientUnits="userSpaceOnUse">
<stop stop-color="#F43638"/>
<stop offset="1" stop-color="#F65E60"/>
</linearGradient>
<linearGradient id="paint1_linear_145_2080" x1="5.5074" y1="8.99999" x2="12.4887" y2="8.99999" gradientUnits="userSpaceOnUse">
<stop stop-color="#F43638"/>
<stop offset="1" stop-color="#F65E60"/>
</linearGradient>
</defs>
</svg>
