<?xml version="1.0" encoding="utf-8"?>
<!-- Generator: Adobe Illustrator 24.3.0, SVG Export Plug-In . SVG Version: 6.00 Build 0)  -->
<svg version="1.1" id="Capa_1" xmlns="http://www.w3.org/2000/svg" xmlns:xlink="http://www.w3.org/1999/xlink" x="0px" y="0px"
	 viewBox="0 0 28 28" style="enable-background:new 0 0 28 28;" xml:space="preserve">
<style type="text/css">
	.st0{fill:url(#SVGID_1_);}
	.st1{fill:url(#SVGID_2_);}
</style>
<g id="Refresh_1_">
	<g>
		<g>
			
				<linearGradient id="SVGID_1_" gradientUnits="userSpaceOnUse" x1="374.7265" y1="-387.4267" x2="374.7265" y2="-87.4257" gradientTransform="matrix(5.468804e-02 0 0 -5.468804e-02 -4.7266 -3.0859)">
				<stop  offset="0" style="stop-color:#5558FF"/>
				<stop  offset="1" style="stop-color:#00C0FF"/>
			</linearGradient>
			<path class="st0" d="M27.9,12c-0.1-0.3-0.4-0.4-0.7-0.4h-1.1C25,5.9,19.9,1.7,14.1,1.7c-4.2,0-8.1,2.1-10.4,5.7
				C3.4,7.8,3.5,8.3,3.9,8.6l2.8,1.7c0.4,0.2,0.9,0.1,1.1-0.3c1.4-2.1,3.7-3.4,6.2-3.4c3.1,0,5.9,2,7,4.9h-0.4
				c-0.3,0-0.6,0.2-0.7,0.4c-0.1,0.3-0.1,0.6,0,0.8l3.3,4.9c0.2,0.2,0.4,0.4,0.7,0.4c0.3,0,0.5-0.1,0.7-0.4l3.3-4.9
				C28,12.6,28,12.2,27.9,12z"/>
		</g>
	</g>
	<g>
		<g>
			
				<linearGradient id="SVGID_2_" gradientUnits="userSpaceOnUse" x1="306.7989" y1="-537.4257" x2="306.7989" y2="-237.8422" gradientTransform="matrix(5.468804e-02 0 0 -5.468804e-02 -4.7266 -3.0859)">
				<stop  offset="0" style="stop-color:#5558FF"/>
				<stop  offset="1" style="stop-color:#00C0FF"/>
			</linearGradient>
			<path class="st1" d="M23.8,20.1l-2.5-2.1c-0.4-0.3-0.9-0.2-1.2,0.2c-1.4,2-3.7,3.3-6.1,3.3c-3.1,0-5.9-2-7-4.9h0.4
				c0.3,0,0.6-0.2,0.7-0.4s0.1-0.6,0-0.8l-3.3-4.9c-0.3-0.5-1.1-0.5-1.4,0l-3.3,4.9C0,15.4,0,15.8,0.1,16s0.4,0.4,0.7,0.4h1.1
				c1.2,5.7,6.2,9.8,12.1,9.8c4,0,7.7-1.9,10-5.1C24.2,20.8,24.1,20.3,23.8,20.1z"/>
		</g>
	</g>
</g>
</svg>
