<svg width="38" height="38" viewBox="0 0 38 38" fill="none" xmlns="http://www.w3.org/2000/svg">
<path fill-rule="evenodd" clip-rule="evenodd" d="M8.81098 19.0001L7.07031 18.9998L10.4543 22.6878L13.8383 18.9998H12.088C12.088 14.7027 15.5715 11.2192 19.8687 11.2192C24.1658 11.2192 27.6493 14.7027 27.6493 18.9998L30.9264 19.0001C30.9264 12.8931 25.9757 7.94238 19.8687 7.94238C13.7617 7.94238 8.81098 12.8931 8.81098 19.0001Z" fill="white"/>
<path fill-rule="evenodd" clip-rule="evenodd" d="M22.0117 26.4792L22.9181 29.6316C26.6104 28.5746 29.5121 25.6457 30.5313 21.9376L27.3703 21.0664C26.6495 23.6829 24.6206 25.7314 22.0117 26.4792Z" fill="white"/>
<path fill-rule="evenodd" clip-rule="evenodd" d="M13.386 23.3018L10.6523 25.1121C12.633 28.0938 16.0217 30.0593 19.8693 30.058C20.0094 30.058 20.149 30.0553 20.2878 30.0501L20.1639 26.7762C17.4519 26.8789 14.8864 25.5631 13.386 23.3018Z" fill="white"/>
</svg>
