<svg width="18" height="19" viewBox="0 0 18 19" fill="none" xmlns="http://www.w3.org/2000/svg">
<g clip-path="url(#clip0_145_2065)">
<path d="M8.60971 17.4206C13.3647 17.4206 17.2194 13.5209 17.2194 8.71031C17.2194 3.89974 13.3647 0 8.60971 0C3.8547 0 0 3.89974 0 8.71031C0 13.5209 3.8547 17.4206 8.60971 17.4206Z" fill="url(#paint0_linear_145_2065)"/>
<path d="M8.61107 1.57938C4.7246 1.57938 1.5625 4.77843 1.5625 8.71031C1.5625 12.6422 4.7246 15.8412 8.61107 15.8412C12.4975 15.8412 15.6596 12.6422 15.6596 8.71031C15.6596 4.77843 12.4975 1.57938 8.61107 1.57938Z" fill="#70C87C"/>
<path d="M8.61127 15.6043C4.8536 15.6043 1.79688 12.5119 1.79688 8.71031C1.79688 4.90873 4.8536 1.81629 8.61127 1.81629C12.3689 1.81629 15.4257 4.90873 15.4257 8.71031C15.4257 12.5119 12.3689 15.6043 8.61127 15.6043Z" fill="white"/>
<path d="M12.7534 5.56338C12.4482 5.2554 11.9541 5.2554 11.6497 5.56338L7.08415 10.1823L5.56671 8.64713C5.26151 8.33915 4.76741 8.33915 4.46299 8.64713C4.15778 8.9559 4.15856 9.45578 4.46299 9.76376L6.53228 11.8572C6.68449 12.0112 6.88432 12.0886 7.08415 12.0886C7.28397 12.0886 7.4838 12.0112 7.63601 11.8572L12.7534 6.68001C13.0586 6.37124 13.0586 5.87136 12.7534 5.56338Z" fill="url(#paint1_linear_145_2065)"/>
</g>
<defs>
<linearGradient id="paint0_linear_145_2065" x1="8.60971" y1="17.4206" x2="8.60971" y2="0" gradientUnits="userSpaceOnUse">
<stop stop-color="#3BB44B"/>
<stop offset="1" stop-color="#62C36F"/>
</linearGradient>
<linearGradient id="paint1_linear_145_2065" x1="4.2335" y1="8.71031" x2="12.9822" y2="8.71031" gradientUnits="userSpaceOnUse">
<stop stop-color="#3BB44B"/>
<stop offset="1" stop-color="#62C36F"/>
</linearGradient>
<clipPath id="clip0_145_2065">
<rect width="18" height="19" fill="white"/>
</clipPath>
</defs>
</svg>
