<svg width="18" height="18" viewBox="0 0 18 18" fill="none" xmlns="http://www.w3.org/2000/svg">
<g clip-path="url(#clip0_1069_603)">
<path d="M17.3283 7.25928V6.9136H0.671736C0.583337 6.9136 0.497632 6.93089 0.420003 6.96243C0.303784 7.00996 0.205514 7.08817 0.135963 7.18755C0.0664107 7.28651 0.0251284 7.40793 0.0255771 7.53583V14.8642H0.384554L0.0291669 14.8154C0.00942314 14.9485 0 15.0816 0 15.2125C0 15.8965 0.261156 16.5369 0.702249 17.0304C1.14289 17.5238 1.76706 17.873 2.48861 17.9719C2.62457 17.9905 2.76098 18 2.89784 18C3.0347 18 3.17156 17.9905 3.30707 17.9719L3.25637 17.6297V17.9754H14.7436V17.6297L14.6929 17.9719C14.8311 17.9909 14.9693 18 15.1053 18C15.8156 18 16.4806 17.7485 16.9931 17.3238C17.5055 16.8994 17.8681 16.2984 17.9708 15.6036C17.9901 15.4726 18 15.3413 18 15.2095C18 15.0777 17.9901 14.9459 17.9708 14.8154L17.6154 14.8642H17.9744V7.53583C17.9744 7.4507 17.9565 7.36817 17.9237 7.29342C17.8744 7.18151 17.7931 7.08688 17.6899 7.0199C17.5872 6.95292 17.4611 6.91317 17.3283 6.9136V7.60496V7.5354L17.3 7.59935C17.309 7.6028 17.3193 7.60496 17.3283 7.60496V7.5354L17.3 7.59935L17.3278 7.53626L17.269 7.57472C17.2767 7.58552 17.287 7.59373 17.3004 7.59935L17.3283 7.53626L17.2695 7.57472L17.3292 7.53583H17.2569C17.2569 7.54879 17.2619 7.56391 17.2695 7.57472L17.3292 7.53583H17.2569V14.8889L17.2605 14.9131C17.2749 15.0116 17.2825 15.1105 17.2825 15.2095C17.2825 15.3084 17.2753 15.4078 17.2605 15.5059C17.1824 16.0305 16.9114 16.479 16.5251 16.8001C16.1383 17.1202 15.6388 17.3091 15.1057 17.3091C15.0034 17.3091 14.8993 17.3022 14.7948 17.2879L14.7697 17.2844H3.23124L3.20611 17.2879C3.1038 17.3017 3.00105 17.3091 2.89829 17.3091C2.79553 17.3091 2.69233 17.3022 2.59047 17.2879C2.04572 17.2127 1.57995 16.9517 1.24655 16.5797C0.914045 16.2072 0.717954 15.7263 0.717954 15.213C0.717954 15.1144 0.725133 15.0142 0.739941 14.9135L0.743531 14.8893V7.53626H0.671287L0.737698 7.56348C0.741287 7.55484 0.743531 7.5449 0.743531 7.53626H0.671287L0.737698 7.56348L0.672184 7.53669L0.71212 7.5933C0.723338 7.58595 0.731864 7.57601 0.737698 7.56305L0.672184 7.53626L0.71212 7.59286L0.671736 7.5354V7.60496C0.685197 7.60496 0.700902 7.60021 0.71212 7.59286L0.671736 7.5354V7.60496H17.3283V7.25928ZM17.6154 5.1852H17.2565V5.60002H17.3287L17.2623 5.5728C17.2587 5.58144 17.2565 5.59138 17.2565 5.60002H17.3287L17.2623 5.5728L17.3278 5.59959L17.2879 5.54298C17.2767 5.55033 17.2681 5.56027 17.2623 5.57323L17.3278 5.60002L17.2879 5.54341L17.3283 5.60088V5.53131C17.3148 5.53131 17.2991 5.53607 17.2879 5.54341L17.3283 5.60088V5.53131H0.671736V5.60088L0.700005 5.53693C0.691031 5.53348 0.68071 5.53131 0.671736 5.53131V5.60088L0.700005 5.53693L0.672184 5.60002L0.730967 5.56156C0.723338 5.55076 0.713018 5.54255 0.699556 5.53693L0.671736 5.60002L0.730518 5.56156L0.670838 5.60045H0.743082C0.743082 5.58749 0.738146 5.57236 0.730518 5.56156L0.670838 5.60045H0.743082V5.16101L0.739492 5.13681C0.724685 5.03613 0.717505 4.93588 0.717505 4.83736C0.717505 4.32403 0.913148 3.8431 1.2461 3.47063C1.57905 3.09859 2.04482 2.8376 2.59002 2.76242C2.69233 2.74859 2.79508 2.74124 2.89784 2.74124C3.0006 2.74124 3.1038 2.74816 3.20566 2.76242L3.23079 2.76587H4.81164V1.03704C4.81164 0.988213 4.82151 0.943707 4.83991 0.902657C4.86683 0.840867 4.91305 0.787719 4.97048 0.750126C5.02837 0.712965 5.09523 0.69136 5.17106 0.69136C5.22177 0.69136 5.26799 0.700867 5.31061 0.718583C5.37478 0.744509 5.42997 0.789015 5.46901 0.844324C5.5076 0.900065 5.53004 0.964448 5.53004 1.03747V2.76587H12.4704V1.03704C12.4704 0.988645 12.4807 0.944139 12.4987 0.903089C12.5256 0.841731 12.5718 0.788151 12.6293 0.75099C12.6871 0.71383 12.754 0.692225 12.8294 0.692225V0.376359L12.8244 0.692225H12.8289V0.376359L12.824 0.692225H12.8262H12.8285C12.8787 0.692225 12.9254 0.702163 12.968 0.719447C13.0318 0.745373 13.0874 0.789447 13.126 0.844756C13.1646 0.900065 13.187 0.96488 13.187 1.03747V2.76544H14.7679L14.793 2.76198C14.8975 2.74773 15.0016 2.74081 15.104 2.74081C15.637 2.74081 16.1365 2.92921 16.5233 3.24983C16.9096 3.57044 17.1806 4.01896 17.2587 4.54397C17.2731 4.64249 17.2807 4.74144 17.2807 4.84039C17.2807 4.93934 17.2735 5.03872 17.2587 5.13681L17.2551 5.16101V5.18563H17.6141L17.9695 5.23446C17.9888 5.10397 17.9987 4.97218 17.9987 4.84039C17.9987 4.7086 17.9888 4.57681 17.9695 4.44631C17.8667 3.75149 17.5042 3.15044 16.9917 2.72612C16.4793 2.30137 15.8143 2.04988 15.104 2.04988C14.9675 2.04988 14.8298 2.05896 14.6916 2.07797L14.7423 2.42019V2.07451H13.9045V1.03747C13.9045 0.89488 13.874 0.757904 13.8197 0.633891C13.7376 0.447656 13.6016 0.290371 13.4302 0.178457C13.2593 0.0669755 13.0502 0.0012963 12.8289 0.0008642V0.346544L12.8339 0.0008642H12.8285H12.8276C12.68 0.0008642 12.5377 0.0298149 12.4085 0.0825311C12.2151 0.161605 12.0513 0.2921 11.9351 0.457162C11.8189 0.622224 11.7507 0.823151 11.7507 1.03661V2.07408H6.2462V1.03704C6.2462 0.89488 6.21613 0.757472 6.16139 0.633459C6.07927 0.446792 5.94331 0.289075 5.77145 0.177593C5.60183 0.0656792 5.39273 0 5.17106 0C5.02343 0 4.88074 0.0289507 4.75196 0.0816669C4.55811 0.160741 4.39433 0.291668 4.27856 0.457162C4.16234 0.622224 4.09413 0.823583 4.09458 1.03704V2.07408H3.25682V2.41976L3.30752 2.07754C3.17156 2.05896 3.03515 2.04945 2.89829 2.04945C2.76143 2.04945 2.62457 2.05896 2.48906 2.07754C1.76751 2.17649 1.14334 2.52563 0.702697 3.01908C0.261156 3.51254 0 4.15292 0 4.83693C0 4.96829 0.00942314 5.10094 0.0291669 5.23403L0.384554 5.1852H0.0255771V5.60002C0.0255771 5.68514 0.0435259 5.76767 0.0762826 5.84243C0.125642 5.95434 0.20686 6.04897 0.310066 6.11595C0.412823 6.18292 0.538914 6.22268 0.671736 6.22224H17.3283C17.4167 6.22224 17.5024 6.20496 17.58 6.17342C17.6962 6.12588 17.7945 6.04767 17.864 5.94829C17.9336 5.84934 17.9749 5.72792 17.9744 5.60002V5.1852H17.6154Z" fill="#A0AEC4"/>
<path d="M5.19124 11.7818C4.5388 11.7849 4.00751 11.2784 4.00392 10.6502C4.00078 10.0219 4.52668 9.51029 5.17912 9.50684H5.19079C5.84323 9.50684 6.37227 10.0163 6.37227 10.6446C6.37227 11.2728 5.84323 11.7823 5.19079 11.7823L5.19124 11.7818Z" fill="#A0AEC4"/>
<path d="M8.78401 11.7818C8.13157 11.7849 7.60029 11.2784 7.5967 10.6502C7.59311 10.0219 8.11946 9.51029 8.7719 9.50684H8.78357C9.43601 9.50684 9.96505 10.0163 9.96505 10.6446C9.96505 11.2728 9.43601 11.7823 8.78357 11.7823L8.78401 11.7818Z" fill="#A0AEC4"/>
<path d="M12.3768 11.7818C11.7243 11.7849 11.1931 11.2784 11.1895 10.6502C11.1863 10.0219 11.7122 9.51029 12.3647 9.50684H12.3763C13.0288 9.50684 13.5578 10.0163 13.5578 10.6446C13.5578 11.2728 13.0288 11.7823 12.3763 11.7823L12.3768 11.7818Z" fill="#A0AEC4"/>
<path d="M5.19124 14.8526C4.5388 14.8557 4.00751 14.3492 4.00392 13.721C4.00078 13.0927 4.52668 12.5811 5.17912 12.5776H5.19079C5.84323 12.5776 6.37227 13.0871 6.37227 13.7154C6.37227 14.3436 5.84323 14.8531 5.19079 14.8531L5.19124 14.8526Z" fill="#A0AEC4"/>
<path d="M8.78401 14.8526C8.13157 14.8557 7.60029 14.3492 7.5967 13.721C7.59311 13.0927 8.11946 12.5811 8.7719 12.5776H8.78357C9.43601 12.5776 9.96505 13.0871 9.96505 13.7154C9.96505 14.3436 9.43601 14.8531 8.78357 14.8531L8.78401 14.8526Z" fill="#A0AEC4"/>
<path d="M12.3768 14.8526C11.7243 14.8557 11.1931 14.3492 11.1895 13.721C11.1863 13.0927 11.7122 12.5811 12.3647 12.5776H12.3763C13.0288 12.5776 13.5578 13.0871 13.5578 13.7154C13.5578 14.3436 13.0288 14.8531 12.3763 14.8531L12.3768 14.8526Z" fill="#A0AEC4"/>
</g>
<defs>
<clipPath id="clip0_1069_603">
<rect width="18" height="18" fill="white"/>
</clipPath>
</defs>
</svg>
