<svg width="34" height="34" viewBox="0 0 34 34" fill="none" xmlns="http://www.w3.org/2000/svg">
<path d="M29.2938 34H27.4988C26.848 34 26.3208 33.4727 26.3208 32.822C26.3208 32.1712 26.848 31.6439 27.4988 31.6439H29.2938C30.5894 31.6439 31.6432 30.59 31.6432 29.2945V4.70621C31.6432 3.41063 30.5894 2.35676 29.2938 2.35676H4.70621C3.41063 2.35676 2.35676 3.41063 2.35676 4.70621V29.2938C2.35676 30.5894 3.41063 31.6432 4.70621 31.6432H23.6951C24.3459 31.6432 24.8731 32.1705 24.8731 32.8213C24.8731 33.4721 24.3459 34 23.6951 34H4.70621C2.11105 34 0 31.8889 0 29.2938V4.70621C0 2.11105 2.11105 0 4.70621 0H29.2938C31.8889 0 34 2.11105 34 4.70621V29.2938C34 31.8889 31.8889 34 29.2938 34Z" fill="#DAEAF4"/>
<path d="M18.6668 17.0002L24.5663 11.1006C25.0265 10.6404 25.0265 9.8947 24.5663 9.4345C24.1061 8.97431 23.3604 8.97431 22.9002 9.4345L17.0007 15.334L11.1011 9.4345C10.6409 8.97431 9.89519 8.97431 9.43499 9.4345C8.97479 9.8947 8.97479 10.6404 9.43499 11.1006L15.3345 17.0002L9.43499 22.8997C8.97479 23.3599 8.97479 24.1056 9.43499 24.5658C9.66476 24.7956 9.9669 24.9111 10.2684 24.9111C10.5699 24.9111 10.8714 24.7963 11.1018 24.5658L17.0007 18.6663L22.9002 24.5658C23.13 24.7956 23.4314 24.9111 23.7336 24.9111C24.0351 24.9111 24.3366 24.7963 24.567 24.5658C25.0272 24.1056 25.0272 23.3599 24.567 22.8997L18.6668 17.0002Z" fill="white"/>
</svg>
