<svg width="40" height="40" viewBox="0 0 40 40" fill="none" xmlns="http://www.w3.org/2000/svg">
<path d="M20.0002 36.6667C29.2049 36.6667 36.6668 29.2048 36.6668 20C36.6668 10.7953 29.2049 3.33337 20.0002 3.33337C10.7954 3.33337 3.3335 10.7953 3.3335 20C3.3335 29.2048 10.7954 36.6667 20.0002 36.6667Z" fill="#E6E6E6"/>
<path d="M26.1833 23.8167C26.8333 24.4667 26.8333 25.5167 26.1833 26.1667C25.8499 26.5 25.4333 26.65 24.9999 26.65C24.5666 26.65 24.1499 26.4833 23.8166 26.1667L19.9999 22.35L16.1833 26.1667C15.8499 26.5 15.4333 26.65 14.9999 26.65C14.5666 26.65 14.1499 26.4833 13.8166 26.1667C13.1666 25.5167 13.1666 24.4667 13.8166 23.8167L17.6333 20L13.8166 16.1833C13.1666 15.5333 13.1666 14.4833 13.8166 13.8333C14.4666 13.1833 15.5166 13.1833 16.1666 13.8333L19.9833 17.65L23.7999 13.8333C24.4499 13.1833 25.4999 13.1833 26.1499 13.8333C26.7999 14.4833 26.7999 15.5333 26.1499 16.1833L22.3333 20L26.1499 23.8167H26.1833Z" fill="black"/>
</svg>
