<svg width="51" height="51" viewBox="0 0 51 51" fill="none" xmlns="http://www.w3.org/2000/svg">
<rect x="1.5" y="1.5" width="48" height="48" rx="24" stroke="#DEEEFF" stroke-width="3"/>
<rect x="4.25" y="4.25" width="42.5" height="42.5" rx="21.25" stroke="#99CCFF" stroke-width="0.5"/>
<rect x="7" y="7" width="37" height="37" rx="18.5" fill="#0079F2"/>
<path d="M16 23.0001H23.586L21.293 25.2931C21.1975 25.3853 21.1213 25.4957 21.0689 25.6177C21.0165 25.7397 20.9889 25.8709 20.9878 26.0037C20.9866 26.1365 21.0119 26.2681 21.0622 26.391C21.1125 26.5139 21.1867 26.6256 21.2806 26.7195C21.3745 26.8134 21.4862 26.8876 21.609 26.9379C21.7319 26.9882 21.8636 27.0135 21.9964 27.0123C22.1292 27.0112 22.2604 26.9836 22.3824 26.9312C22.5044 26.8788 22.6148 26.8026 22.707 26.7071L26.707 22.7071C26.8945 22.5196 26.9998 22.2652 26.9998 22.0001C26.9998 21.7349 26.8945 21.4806 26.707 21.2931L22.707 17.2931C22.6148 17.1976 22.5044 17.1214 22.3824 17.069C22.2604 17.0166 22.1292 16.989 21.9964 16.9878C21.8636 16.9867 21.7319 17.012 21.609 17.0623C21.4862 17.1125 21.3745 17.1868 21.2806 17.2807C21.1867 17.3746 21.1125 17.4862 21.0622 17.6091C21.0119 17.732 20.9866 17.8637 20.9878 17.9965C20.9889 18.1293 21.0165 18.2605 21.0689 18.3825C21.1213 18.5045 21.1975 18.6148 21.293 18.7071L23.586 21.0001H16C15.7348 21.0001 15.4804 21.1054 15.2929 21.293C15.1054 21.4805 15 21.7349 15 22.0001C15 22.2653 15.1054 22.5197 15.2929 22.7072C15.4804 22.8947 15.7348 23.0001 16 23.0001Z" fill="white"/>
<path d="M35.9998 28.9999H28.4138L30.7068 26.7069C30.8889 26.5183 30.9897 26.2657 30.9875 26.0035C30.9852 25.7413 30.88 25.4905 30.6946 25.3051C30.5092 25.1197 30.2584 25.0145 29.9962 25.0122C29.734 25.01 29.4814 25.1108 29.2928 25.2929L25.2928 29.2929C25.1053 29.4804 25 29.7348 25 29.9999C25 30.2651 25.1053 30.5194 25.2928 30.7069L29.2928 34.7069C29.4814 34.8891 29.734 34.9899 29.9962 34.9876C30.2584 34.9853 30.5092 34.8801 30.6946 34.6947C30.88 34.5093 30.9852 34.2585 30.9875 33.9963C30.9897 33.7341 30.8889 33.4815 30.7068 33.2929L28.4138 30.9999H35.9998C36.265 30.9999 36.5194 30.8946 36.7069 30.707C36.8944 30.5195 36.9998 30.2651 36.9998 29.9999C36.9998 29.7347 36.8944 29.4803 36.7069 29.2928C36.5194 29.1053 36.265 28.9999 35.9998 28.9999Z" fill="white"/>
</svg>
