<svg width="18" height="18" viewBox="0 0 18 18" fill="none" xmlns="http://www.w3.org/2000/svg">
<path d="M11.25 3H6.75C6.55109 3 6.36032 2.92098 6.21967 2.78033C6.07902 2.63968 6 2.44891 6 2.25C6 2.05109 6.07902 1.86032 6.21967 1.71967C6.36032 1.57902 6.55109 1.5 6.75 1.5H11.25C11.4489 1.5 11.6397 1.57902 11.7803 1.71967C11.921 1.86032 12 2.05109 12 2.25C12 2.44891 11.921 2.63968 11.7803 2.78033C11.6397 2.92098 11.4489 3 11.25 3Z" fill="#E63946"/>
<path d="M11.25 16.5H6.75C5.95435 16.5 5.19129 16.1839 4.62868 15.6213C4.06607 15.0587 3.75 14.2956 3.75 13.5V4.5H14.25V13.5C14.25 14.2956 13.9339 15.0587 13.3713 15.6213C12.8087 16.1839 12.0457 16.5 11.25 16.5Z" fill="#E63946"/>
<path d="M15 6H3C2.80109 6 2.61032 5.92098 2.46967 5.78033C2.32902 5.63968 2.25 5.44891 2.25 5.25C2.25 5.05109 2.32902 4.86032 2.46967 4.71967C2.61032 4.57902 2.80109 4.5 3 4.5H15C15.1989 4.5 15.3897 4.57902 15.5303 4.71967C15.671 4.86032 15.75 5.05109 15.75 5.25C15.75 5.44891 15.671 5.63968 15.5303 5.78033C15.3897 5.92098 15.1989 6 15 6Z" fill="#C9273A"/>
<path d="M7.5 13.5C7.30109 13.5 7.11032 13.421 6.96967 13.2803C6.82902 13.1397 6.75 12.9489 6.75 12.75V8.25C6.75 8.05109 6.82902 7.86032 6.96967 7.71967C7.11032 7.57902 7.30109 7.5 7.5 7.5C7.69891 7.5 7.88968 7.57902 8.03033 7.71967C8.17098 7.86032 8.25 8.05109 8.25 8.25V12.75C8.25 12.9489 8.17098 13.1397 8.03033 13.2803C7.88968 13.421 7.69891 13.5 7.5 13.5Z" fill="#EDEBEA"/>
<path d="M10.5 13.5C10.3011 13.5 10.1103 13.421 9.96967 13.2803C9.82902 13.1397 9.75 12.9489 9.75 12.75V8.25C9.75 8.05109 9.82902 7.86032 9.96967 7.71967C10.1103 7.57902 10.3011 7.5 10.5 7.5C10.6989 7.5 10.8897 7.57902 11.0303 7.71967C11.171 7.86032 11.25 8.05109 11.25 8.25V12.75C11.25 12.9489 11.171 13.1397 11.0303 13.2803C10.8897 13.421 10.6989 13.5 10.5 13.5Z" fill="#EDEBEA"/>
<path d="M11.25 3H6.75C6.55109 3 6.36032 2.92098 6.21967 2.78033C6.07902 2.63968 6 2.44891 6 2.25C6 2.05109 6.07902 1.86032 6.21967 1.71967C6.36032 1.57902 6.55109 1.5 6.75 1.5H11.25C11.4489 1.5 11.6397 1.57902 11.7803 1.71967C11.921 1.86032 12 2.05109 12 2.25C12 2.44891 11.921 2.63968 11.7803 2.78033C11.6397 2.92098 11.4489 3 11.25 3Z" fill="#E63946"/>
<path d="M11.25 16.5H6.75C5.95435 16.5 5.19129 16.1839 4.62868 15.6213C4.06607 15.0587 3.75 14.2956 3.75 13.5V4.5H14.25V13.5C14.25 14.2956 13.9339 15.0587 13.3713 15.6213C12.8087 16.1839 12.0457 16.5 11.25 16.5Z" fill="#E63946"/>
<path d="M15 6H3C2.80109 6 2.61032 5.92098 2.46967 5.78033C2.32902 5.63968 2.25 5.44891 2.25 5.25C2.25 5.05109 2.32902 4.86032 2.46967 4.71967C2.61032 4.57902 2.80109 4.5 3 4.5H15C15.1989 4.5 15.3897 4.57902 15.5303 4.71967C15.671 4.86032 15.75 5.05109 15.75 5.25C15.75 5.44891 15.671 5.63968 15.5303 5.78033C15.3897 5.92098 15.1989 6 15 6Z" fill="#C9273A"/>
<path d="M7.5 13.5C7.30109 13.5 7.11032 13.421 6.96967 13.2803C6.82902 13.1397 6.75 12.9489 6.75 12.75V8.25C6.75 8.05109 6.82902 7.86032 6.96967 7.71967C7.11032 7.57902 7.30109 7.5 7.5 7.5C7.69891 7.5 7.88968 7.57902 8.03033 7.71967C8.17098 7.86032 8.25 8.05109 8.25 8.25V12.75C8.25 12.9489 8.17098 13.1397 8.03033 13.2803C7.88968 13.421 7.69891 13.5 7.5 13.5Z" fill="#EDEBEA"/>
<path d="M10.5 13.5C10.3011 13.5 10.1103 13.421 9.96967 13.2803C9.82902 13.1397 9.75 12.9489 9.75 12.75V8.25C9.75 8.05109 9.82902 7.86032 9.96967 7.71967C10.1103 7.57902 10.3011 7.5 10.5 7.5C10.6989 7.5 10.8897 7.57902 11.0303 7.71967C11.171 7.86032 11.25 8.05109 11.25 8.25V12.75C11.25 12.9489 11.171 13.1397 11.0303 13.2803C10.8897 13.421 10.6989 13.5 10.5 13.5Z" fill="#EDEBEA"/>
</svg>
