<svg width="28" height="28" viewBox="0 0 28 28" fill="none" xmlns="http://www.w3.org/2000/svg">
<g clip-path="url(#clip0_1459_20400)">
<path d="M28 14C28 21.7321 21.7321 28 14 28C6.26791 28 0 21.7321 0 14C0 6.26791 6.26791 0 14 0C21.7321 0 28 6.26791 28 14Z" fill="url(#paint0_linear_1459_20400)"/>
<path d="M12.2017 22.4766H9.56665C8.71579 22.4766 8.02344 21.7842 8.02344 20.9333V7.06665C8.02344 6.21579 8.71579 5.52344 9.56665 5.52344H19.2532C20.1042 5.52344 20.7964 6.21579 20.7964 7.06665V11.912C20.7964 12.3651 21.1638 12.7324 21.6167 12.7324C22.0698 12.7324 22.437 12.3651 22.437 11.912V7.06665C22.437 5.3111 21.0087 3.88281 19.2532 3.88281H9.56686C7.8111 3.88281 6.38281 5.3111 6.38281 7.06665V20.9333C6.38281 22.6889 7.81131 24.1172 9.56686 24.1172H12.2019C12.6548 24.1172 13.0222 23.75 13.0222 23.2969C13.0222 22.8438 12.6548 22.4766 12.2017 22.4766Z" fill="white"/>
<path d="M18.4667 8.61011H10.3516C9.89868 8.61011 9.53125 8.97733 9.53125 9.43042C9.53125 9.88351 9.89868 10.2507 10.3516 10.2507H18.4667C18.9198 10.2507 19.287 9.88351 19.287 9.43042C19.287 8.97733 18.9198 8.61011 18.4667 8.61011Z" fill="white"/>
<path d="M19.287 12.5818C19.287 12.1289 18.9198 11.7615 18.4667 11.7615H10.3516C9.89868 11.7615 9.53125 12.1289 9.53125 12.5818C9.53125 13.0349 9.89868 13.4021 10.3516 13.4021H18.4667C18.9198 13.4021 19.287 13.0349 19.287 12.5818Z" fill="white"/>
<path d="M10.3516 14.9131C9.89847 14.9131 9.53125 15.2803 9.53125 15.7334C9.53125 16.1865 9.89847 16.5537 10.3516 16.5537H15.2803C15.7332 16.5537 16.1006 16.1865 16.1006 15.7334C16.1006 15.2803 15.7332 14.9131 15.2803 14.9131H10.3516Z" fill="white"/>
<path d="M23.8221 15.2997C22.8879 14.3653 21.3678 14.3655 20.4343 15.299L16.1086 19.6149C16.0131 19.7103 15.9424 19.8278 15.9031 19.9573L14.9612 23.0585C14.8743 23.3447 14.9499 23.6555 15.1588 23.8696C15.3154 24.03 15.528 24.1172 15.7461 24.1172C15.8191 24.1172 15.8926 24.1073 15.9651 24.0873L19.145 23.2065C19.2813 23.1687 19.4055 23.0963 19.5054 22.9965L23.8221 18.6882C24.7563 17.754 24.7563 16.2338 23.8221 15.2997ZM22.6621 16.4596C22.9565 16.7542 22.9565 17.2336 22.6626 17.5275L22.5329 17.657L21.4646 16.5887L21.5936 16.4596C21.8882 16.1653 22.3673 16.1653 22.6621 16.4596ZM18.4993 21.6829L16.9644 22.108L17.4132 20.6311L20.3031 17.7474L21.3716 18.8159L18.4993 21.6829Z" fill="white"/>
</g>
<defs>
<linearGradient id="paint0_linear_1459_20400" x1="5" y1="3.5" x2="23.5" y2="24.5" gradientUnits="userSpaceOnUse">
<stop stop-color="#54BDFF"/>
<stop offset="1" stop-color="#0042C7"/>
</linearGradient>
<clipPath id="clip0_1459_20400">
<rect width="28" height="28" fill="white"/>
</clipPath>
</defs>
</svg>
