<svg width="30" height="33" viewBox="0 0 20 22" fill="none" xmlns="http://www.w3.org/2000/svg">
<path d="M17.2266 5.48828V18.6914C17.2266 19.4023 16.6523 19.9766 15.9414 19.9766H4.05859C3.34766 19.9766 2.77344 19.4023 2.77344 18.6914V1.30859C2.77344 0.597656 3.34766 0.0234375 4.05859 0.0234375H11.7617L17.2266 5.48828Z" fill="#FF3030"/>
<path opacity="0.19" d="M12.4961 5.28906L17.2266 9.12109V5.52344L14.543 3.96484L12.4961 5.28906Z" fill="black"/>
<path d="M17.2266 5.48828H13.0469C12.3359 5.48828 11.7617 4.91406 11.7617 4.20312V0.0234375L17.2266 5.48828Z" fill="#FDE8E4"/>
<g clip-path="url(#clip0_1325_1058)">
<path d="M19.9987 18C19.9987 15.7908 18.2081 14 15.9993 14C13.7906 14 12 15.7908 12 18C12 20.2092 13.7906 22 15.9993 22C18.2081 22 19.9987 20.2092 19.9987 18Z" fill="#EBFFF9"/>
<path d="M18.4386 14.8302C18.959 15.5054 19.2687 16.3514 19.2687 17.2698C19.2687 19.4789 17.4781 21.2698 15.2693 21.2698C14.351 21.2698 13.5052 20.96 12.8301 20.4396C13.5614 21.3885 14.7089 22 15.9994 22C18.2082 22 19.9987 20.2092 19.9987 18C19.9987 16.7093 19.3873 15.5616 18.4386 14.8302Z" fill="#FDE8E4"/>
<path d="M16.8996 17.7759L16.5753 18.1002V16.5399C16.5753 16.2209 16.3168 15.9623 15.9978 15.9623C15.6788 15.9623 15.4203 16.2209 15.4203 16.5399V18.1145L15.0972 17.7914C14.8717 17.5659 14.506 17.5659 14.2805 17.7914C14.0549 18.017 14.0549 18.3828 14.2805 18.6083L15.1739 19.5019L15.5109 19.839C15.7759 20.1039 16.2054 20.1039 16.4703 19.839L16.8074 19.5019L17.7164 18.5928C17.9412 18.3679 17.9412 18.0032 17.7164 17.7784L17.7139 17.7759C17.489 17.551 17.1245 17.551 16.8996 17.7759Z" fill="#FF3030"/>
<path d="M16.113 16.5399V18.0688C16.113 18.2381 16.3176 18.3229 16.4373 18.2032C16.4796 18.1609 16.5268 18.1266 16.5771 18.1002V16.5399C16.5771 16.2209 16.3185 15.9623 15.9996 15.9623C15.9171 15.9623 15.8386 15.9797 15.7676 16.0109C15.9709 16.1003 16.113 16.3035 16.113 16.5399Z" fill="#FFAD9C"/>
<path d="M17.7175 17.7784L17.7151 17.7759C17.5422 17.603 17.2869 17.5632 17.0759 17.6561C17.1394 17.684 17.199 17.7239 17.251 17.7759L17.2534 17.7784C17.4783 18.0032 17.4783 18.3679 17.2534 18.5928L16.3445 19.5019L16.0074 19.839C15.9349 19.9114 15.8501 19.964 15.7598 19.9968C15.9998 20.084 16.2791 20.0315 16.4715 19.839L16.8085 19.5019L17.7175 18.5928C17.9424 18.3679 17.9424 18.0032 17.7175 17.7784Z" fill="#FFAD9C"/>
</g>
<path opacity="0.5" d="M15.5545 11.2419H4.44554C4.19946 11.2419 4 11.0425 4 10.7964V10.6875C4 10.4414 4.19946 10.2419 4.44554 10.2419H15.5545C15.8005 10.2419 16 10.4414 16 10.6875V10.7964C16 11.0425 15.8005 11.2419 15.5545 11.2419Z" fill="#FFC8B3"/>
<path opacity="0.5" d="M12.6142 13.2419H4.38583C4.17275 13.2419 4 13.0692 4 12.8561V12.6278C4 12.4147 4.17275 12.2419 4.38583 12.2419H12.6142C12.8272 12.2419 13 12.4147 13 12.6278V12.8561C13 13.0692 12.8272 13.2419 12.6142 13.2419Z" fill="#FFC8B3"/>
<path d="M4.97267 5.52472C5.62892 5.52472 5.95704 5.87139 5.95704 6.56476V7.10968C5.95704 7.80109 5.62892 8.1468 4.97267 8.1468H4.65921V9.72589H4V5.52472H4.97267ZM4.65917 6.1253V7.54914H4.97263C5.18746 7.54914 5.29487 7.4163 5.29487 7.15072V6.52084C5.29487 6.25718 5.18746 6.12534 4.97263 6.12534H4.65917V6.1253Z" fill="white"/>
<path d="M6.26172 5.52472H7.30468C7.96093 5.52472 8.28905 5.87139 8.28905 6.56476V8.6888C8.28905 9.38022 7.96093 9.72593 7.30468 9.72593H6.26172V5.52472ZM6.92093 6.1253V9.1253H7.29301C7.51764 9.1253 7.62993 8.98955 7.62993 8.71809V6.53255C7.62993 6.26105 7.51764 6.12534 7.29301 6.12534H6.92093V6.1253Z" fill="white"/>
<path d="M9.36815 7.39093H10.2207V7.99151H9.36815V9.72589H8.70898V5.52472H10.4551V6.1253H9.36815V7.39093Z" fill="white"/>
<defs>
<clipPath id="clip0_1325_1058">
<rect width="8" height="8" fill="white" transform="translate(12 14)"/>
</clipPath>
</defs>
</svg>
