<svg width="28" height="28" viewBox="0 0 28 28" fill="none" xmlns="http://www.w3.org/2000/svg">
<g clip-path="url(#clip0_1459_20408)">
<path d="M14 28C21.732 28 28 21.732 28 14C28 6.26801 21.732 0 14 0C6.26801 0 0 6.26801 0 14C0 21.732 6.26801 28 14 28Z" fill="url(#paint0_linear_1459_20408)"/>
<path d="M18.8756 12.9905L18.8679 12.9828L15.0092 9.12134C15.0092 9.12134 10.3061 13.8245 8.03982 16.1377C7.75763 16.4254 7.5438 16.8257 7.41693 17.2129C7.04505 18.3499 6.73716 19.5098 6.39482 20.6582C6.30294 20.9661 6.32154 21.2374 6.56271 21.467C6.79021 21.6858 7.04615 21.6934 7.34146 21.6049C8.43521 21.2767 9.53607 20.9645 10.6347 20.65C11.1997 20.4863 11.7118 20.1772 12.1201 19.7537C14.2791 17.5815 18.8756 12.9905 18.8756 12.9905Z" fill="white"/>
<path d="M21.1282 8.19264L19.8086 6.87303C19.4702 6.5349 19.0114 6.34497 18.533 6.34497C18.0546 6.34497 17.5958 6.5349 17.2574 6.87303L15.7617 8.36709L19.633 12.2395L21.1288 10.7438C21.4668 10.4053 21.6566 9.94649 21.6565 9.46811C21.6564 8.98974 21.4664 8.53097 21.1282 8.19264Z" fill="white"/>
</g>
<defs>
<linearGradient id="paint0_linear_1459_20408" x1="4.10047" y1="4.10047" x2="23.8995" y2="23.8995" gradientUnits="userSpaceOnUse">
<stop stop-color="#54BDFF"/>
<stop offset="1" stop-color="#0042C7"/>
</linearGradient>
<clipPath id="clip0_1459_20408">
<rect width="28" height="28" fill="white"/>
</clipPath>
</defs>
</svg>
