<svg width="28" height="28" viewBox="0 0 28 28" fill="none" xmlns="http://www.w3.org/2000/svg">
<path d="M28 14C28 6.26801 21.732 0 14 0C6.26801 0 0 6.26801 0 14C0 21.732 6.26801 28 14 28C21.732 28 28 21.732 28 14Z" fill="url(#paint0_linear_1459_20397)"/>
<path d="M10.2561 11.2497L5.97628 12.3631C5.44745 12.5004 4.92355 12.1252 4.88362 11.5805L4.55987 7.16944C4.53253 6.79976 4.94925 6.56569 5.25112 6.78171L6.52042 7.69062C9.80222 3.8264 15.5548 3.06296 19.7493 6.06804C21.4053 7.25366 22.5832 8.85819 23.2428 10.6344C23.4238 11.1223 23.146 11.6604 22.6417 11.79L21.1504 12.1739C20.7206 12.2844 20.2798 12.0541 20.1157 11.6412C19.6673 10.5119 18.9006 9.49421 17.8396 8.7346C15.1184 6.78499 11.4144 7.21319 9.20065 9.61069L10.4016 10.4709C10.7035 10.6869 10.616 11.1567 10.2572 11.2502L10.2561 11.2497ZM22.021 15.6367L17.7412 16.7501C17.3819 16.8437 17.295 17.3134 17.5968 17.5294L18.7978 18.3897C16.5835 20.7872 12.88 21.2154 10.1588 19.2658C9.09784 18.5062 8.33058 17.4884 7.88269 16.3591C7.71862 15.9462 7.27839 15.7155 6.848 15.8265L5.35667 16.2104C4.85245 16.34 4.57464 16.8781 4.75565 17.3659C5.41519 19.1416 6.59315 20.7462 8.24909 21.9323C12.4436 24.9374 18.1962 24.1745 21.478 20.3098L22.7473 21.2187C23.0486 21.4347 23.4653 21.2012 23.4385 20.8309L23.1148 16.4198C23.0749 15.8751 22.551 15.4994 22.0221 15.6373L22.021 15.6367Z" fill="white"/>
<defs>
<linearGradient id="paint0_linear_1459_20397" x1="4.10047" y1="4.10047" x2="23.8995" y2="23.8995" gradientUnits="userSpaceOnUse">
<stop stop-color="#54BDFF"/>
<stop offset="1" stop-color="#0042C7"/>
</linearGradient>
</defs>
</svg>
