<svg width="20" height="20" viewBox="0 0 20 20" fill="none" xmlns="http://www.w3.org/2000/svg">
<path d="M2.49935 11.7413C2.68685 11.7413 2.87247 11.6575 2.99497 11.4975L3.26685 11.1444C3.67372 13.5581 5.36435 15.6231 7.76435 16.4563C8.5031 16.7125 9.26122 16.8356 10.0093 16.8356C12.2493 16.8356 14.405 15.7306 15.6956 13.785C15.8862 13.4975 15.8075 13.1094 15.52 12.9188C15.2312 12.7269 14.845 12.8069 14.6531 13.0944C13.2475 15.2156 10.5831 16.1131 8.17497 15.2756C6.17685 14.5819 4.7831 12.8425 4.4856 10.8225L5.0206 11.2344C5.29497 11.4438 5.68685 11.3938 5.89685 11.12C6.10747 10.8463 6.05685 10.4544 5.7831 10.2438C5.7831 10.2438 4.30497 9.10563 4.30122 9.10313C3.9906 8.86376 3.54872 8.72938 3.26747 9.09626L2.00497 10.7356C1.79435 11.0094 1.84497 11.4013 2.11872 11.6119C2.23185 11.6988 2.36622 11.7413 2.49935 11.7413Z" fill="white"/>
<path d="M4.48083 7.08188C4.7677 7.27251 5.15583 7.19376 5.3477 6.90626C6.75333 4.78563 9.4202 3.88813 11.8258 4.72501C13.824 5.41876 15.2177 7.15813 15.5152 9.17813L14.9802 8.76626C14.7058 8.55626 14.314 8.60626 14.104 8.88063C13.8933 9.15438 13.944 9.54626 14.2177 9.75688C14.2177 9.75688 15.6958 10.8944 15.6996 10.8975C16.0158 11.1406 16.4477 11.2769 16.7333 10.9044L17.9958 9.26501C18.2065 8.99126 18.1558 8.59938 17.8821 8.38876C17.6083 8.17813 17.2158 8.22938 17.0058 8.50313L16.734 8.85626C16.3271 6.44251 14.6365 4.37751 12.2365 3.54438C9.28645 2.52063 6.02645 3.61876 4.3052 6.21501C4.11458 6.50313 4.19333 6.89063 4.48083 7.08188Z" fill="white"/>
</svg>
